<?xml version="1.0" encoding="UTF-8"?>
<!-- Generated by Pixelmator Pro 3.2.3 -->
<svg width="960" height="960" viewBox="0 0 960 960" xmlns="http://www.w3.org/2000/svg" xmlns:xlink="http://www.w3.org/1999/xlink">
    <path id="Path" fill="#171717" fill-rule="evenodd" stroke="none" d="M 699.442993 750.440979 L 605.392029 755.322021 L 605.367004 754.934021 C 612.663025 736.646973 631.161011 723.38501 650.822021 722.362 C 670.482971 721.338989 690.263977 732.594971 699.421997 750.021973 L 699.442993 750.440979 Z M 586.767029 756.291016 C 569.083984 802.236023 550.552002 848.05603 510.992004 877.356018 C 509.669006 878.333008 508.338989 879.283997 506.990997 880.195007 L 507.799011 881.372009 C 581.721985 916.471008 673.909973 917.330017 746.892029 880.307983 C 797.838013 854.455994 841.142029 810.218018 857.309998 755.419983 C 873.478027 700.622009 858.711975 635.69397 814.629028 599.336975 C 785.870972 575.617004 748.30603 565.679993 711.528992 559.60199 C 671.599976 552.778992 631.083008 550.013 590.596008 551.343994 L 590.156006 550.986023 L 590.156006 550.698975 L 589.336975 550.689026 C 577.617981 564.580017 567.460999 579.71698 559.047974 595.827026 C 553.255981 572.822998 547.35199 549.53302 535.932007 528.73999 L 535.942017 528.484009 C 529.791992 528.29303 523.642029 528.094971 517.492004 527.890015 L 517.460999 528.75 C 521.346985 605.40802 522.880005 682.080017 522.060974 758.765991 L 522.112 759.656006 L 586.767029 756.291016 Z M 590.562988 653.617004 L 590.552979 653.848999 C 589.252991 663.249023 587.953003 672.758972 588.802979 682.213989 C 589.653015 691.669006 592.825012 701.213989 599.403015 708.062988 C 605.981018 714.911987 616.338989 718.531006 625.343994 715.52301 C 630.981995 713.640015 635.627991 709.382996 638.862 704.388977 C 642.096008 699.39502 644.028992 693.664978 645.481995 687.903992 C 648.192993 677.153992 649.372009 666.073975 648.981995 654.994995 L 648.307007 655.015015 C 646.517029 654.973022 644.728027 654.929016 642.940002 654.88501 C 641.200012 654.84198 639.461975 654.799011 637.726013 654.758972 C 638.012024 651.34198 638.257996 647.903015 638.463013 644.474976 C 638.671021 642.80603 638.546021 641.112 638.093994 639.492004 C 637.85498 638.682983 637.390015 637.960022 636.754028 637.406982 C 636.117004 636.854004 635.335999 636.494019 634.502014 636.370972 C 632.067017 636.20697 630.327026 638.682983 629.447021 640.965027 C 627.890015 645.015991 627.353027 649.387024 627.882019 653.695007 L 627.861023 654.513977 C 615.427979 654.219971 602.994995 653.921021 590.562988 653.617004 Z M 762.189026 582.469971 C 761.39502 582.171021 760.51001 582.572021 760.210999 583.36499 C 759.911987 584.15802 760.312988 585.044006 761.106018 585.343018 C 799.132996 599.666992 829.515991 632.914978 840.367981 672.077026 C 851.219971 711.239014 842.278992 755.382996 817.044006 787.236023 C 816.518005 787.901001 816.630005 788.866028 817.294006 789.392029 C 817.958984 789.919006 818.924011 789.807007 819.450989 789.142029 C 845.294006 756.520996 854.440979 711.364014 843.327026 671.257019 C 832.213013 631.151001 801.132019 597.140015 762.189026 582.469971 Z"/>
    <path id="path1" fill="#171717" stroke="none" d="M 637.723022 654.763 C 641.242981 654.844971 644.77301 654.937012 648.304016 655.018982 L 648.979004 654.999023 C 649.369019 666.078979 648.190002 677.15802 645.479004 687.90802 C 644.026001 693.669006 642.09198 699.398987 638.859009 704.393005 C 635.625977 709.387024 630.979004 713.643982 625.341003 715.526978 C 616.341003 718.534973 605.97998 714.913025 599.400024 708.067017 C 592.820007 701.221008 589.638 691.674011 588.799988 682.218018 C 587.961975 672.762024 589.25 663.257019 590.549988 653.853027 L 590.559998 653.617004 C 602.992981 653.914001 615.426025 654.213989 627.859985 654.517029 L 637.723022 654.763 Z"/>
    <path id="path2" fill="#ffffff" stroke="none" d="M 627.880005 653.698975 C 627.349976 649.390991 627.887024 645.02002 629.445007 640.968994 C 630.325012 638.687012 632.065002 636.210999 634.5 636.375 C 635.333008 636.499023 636.11499 636.857971 636.750977 637.411011 C 637.388 637.963989 637.853027 638.687012 638.09198 639.495972 C 638.54303 641.116028 638.66803 642.809998 638.460999 644.479004 C 638.260986 647.906982 638.01001 651.346008 637.723999 654.763 L 627.859009 654.518005 L 627.880005 653.698975 Z"/>
    <path id="path3" fill="#ffffff" stroke="none" d="M 589.341003 550.684021 C 577.622009 564.575012 567.465027 579.711975 559.052002 595.822021 C 553.26001 572.822021 547.353027 549.528015 535.937012 528.734985 L 535.947021 528.479004 C 538.862976 528.578979 541.789978 528.672974 544.705994 528.765015 L 562.716003 529.348999 C 569.736023 529.583984 577.174988 529.942017 582.966003 533.911987 C 588.70697 537.84198 590.252991 540.450989 590.161011 550.69397 L 589.341003 550.684021 Z"/>
    <path id="path4" fill="#ffffff" stroke="none" d="M 463.651001 565.512024 C 457.174011 559.781006 449.243011 555.349976 440.651001 554.460022 L 440.528015 554.491028 C 437.949005 544.953979 444.959015 534.791016 453.942993 530.546021 C 461.269989 527.077026 469.507996 526.554993 477.68399 526.645996 C 479.700012 526.666992 481.704987 526.728027 483.690002 526.789001 C 490.566986 527.013977 497.440002 527.234985 504.309998 527.453979 L 504.299988 527.760986 C 494.415009 545.976013 487.446014 565.612976 480.518005 585.161011 C 475.347992 578.221008 470.139008 571.231995 463.651001 565.512024 Z"/>
    <path id="path5" fill="#171717" stroke="none" d="M 430.158997 813.322998 C 430.372986 814.812988 430.919006 816.236023 431.756989 817.486023 C 432.593994 818.737 433.701996 819.78302 434.998993 820.546997 C 438.283997 822.296997 442.459015 821.570007 445.640991 819.625977 C 448.822998 817.682007 451.208008 814.713989 453.459015 811.757019 C 463.55899 798.526001 472.502991 784.302002 478.744995 768.880981 C 479.704987 766.577026 480.488007 764.203979 481.088013 761.781006 C 482.356995 756.450012 482.419006 750.965027 479.368988 746.596008 C 475.569 741.171997 468.368988 739.544983 461.820007 738.614014 C 443.696991 736.046021 425.072998 735.614014 407.220001 739.627014 C 389.367004 743.640015 370.899994 753.656006 358.651001 767.255981 L 358.691986 768.135986 L 395.191986 766.242981 C 390.638 775.401001 386.084015 784.562988 381.531006 793.729004 C 380.036987 796.747009 378.511993 799.828979 378.052002 803.163025 C 377.59201 806.497009 378.390015 810.203979 380.897003 812.455017 C 383.382996 814.685974 387.118011 815.075012 390.372009 814.286987 C 393.626007 813.499023 396.53299 811.677002 399.372009 809.887024 L 400.436005 810.234985 C 399.906006 811.75 399.792999 813.380005 400.109009 814.953003 C 401.162994 819.312012 406.360992 821.252991 410.842987 821.252991 C 414.220001 821.245972 417.562012 820.562012 420.670013 819.242004 C 423.778992 817.921997 426.59201 815.992981 428.942993 813.567993 L 430.158997 813.322998 Z M 192.427002 799.088989 C 179.410995 757.020996 189.184006 709.817017 213.037003 672.804016 C 236.889999 635.791016 273.645996 608.325989 313.697998 590.030029 C 353.75 571.734009 394.170013 555.789978 440.65799 554.940979 C 440.617004 554.788025 440.56601 554.640991 440.524994 554.491028 L 440.64801 554.460022 C 449.247986 555.349976 457.174011 559.781006 463.64801 565.512024 C 470.122009 571.242981 475.347992 578.221008 480.511993 585.158997 C 487.440002 565.614014 494.411987 545.97699 504.294006 527.758972 L 504.303986 527.452026 C 508.70401 527.606018 513.093994 527.739014 517.494019 527.882019 L 517.463013 528.742004 C 521.34198 605.346008 522.875977 682.018005 522.062988 758.757996 L 522.114014 759.64801 L 586.765991 756.291992 C 569.080994 802.23999 550.549011 848.064026 510.992004 877.356018 C 509.671997 878.328979 508.34201 879.280029 506.992004 880.190979 C 478.635986 899.622986 443.618988 907.544006 409.266998 910.469971 C 365.450012 914.205017 320.158997 910.336975 280.024994 892.369995 C 239.891006 874.403015 205.423004 841.094971 192.427002 799.088989 Z"/>
    <path id="path6" fill="none" stroke="#ffffff" stroke-width="4" stroke-linecap="round" stroke-linejoin="round" d="M 523.737976 450.503998 C 528.455994 449.70401 533.169983 448.898987 537.880005 448.088989 C 537.205017 429.802979 536.52301 411.514038 535.833008 393.219971 C 535.690002 389.420044 535.864014 384.971985 538.965027 382.792969 C 540.950012 381.401001 543.570007 381.411011 546.005005 381.471985 C 555.429993 381.718018 564.851013 381.967041 574.268005 382.218994"/>
    <path id="path7" fill="none" stroke="#ffffff" stroke-width="3.07" stroke-linecap="round" stroke-linejoin="round" d="M 556.208008 405.55603 L 556.208008 396.156006"/>
    <path id="path8" fill="none" stroke="#ffffff" stroke-width="3.07" stroke-linecap="round" stroke-linejoin="round" d="M 509.730011 403.401978 C 509.54599 400.505981 509.362 397.613037 509.178009 394.723999"/>
    <path id="path9" fill="none" stroke="#ffffff" stroke-width="3.07" stroke-linecap="round" stroke-linejoin="round" d="M 521.406006 473.691986 C 518.271973 474.553009 514.953003 474.472992 511.86499 473.462006 C 508.776001 472.450012 506.053009 470.552002 504.036011 468.003998 C 502.018005 465.454987 500.79599 462.369995 500.519989 459.131012 C 500.243988 455.893005 500.927002 452.644989 502.484985 449.791992"/>
    <path id="path10" fill="none" stroke="#ffffff" stroke-width="4" stroke-linecap="round" stroke-linejoin="round" d="M 477.69101 524.723022 L 478.612 455.622986 C 478.858002 437.593018 479.100006 419.562012 479.338013 401.531982 C 479.492004 389.703003 480.362 376.307983 489.428009 368.714966 C 495.77301 363.415039 504.552002 362.401001 512.789978 361.776978 C 538.200012 359.85498 563.703979 359.493042 589.15802 360.692017 L 592.330017 360.846008"/>
    <path id="path11" fill="none" stroke="#ffffff" stroke-width="4" stroke-linecap="round" stroke-linejoin="round" d="M 544.736023 527.802979 C 541.982971 519.033997 545.236023 509.394012 550.374023 501.770996 C 555.512024 494.14801 562.39801 487.904999 568.107971 480.710999 C 580.838013 464.656006 587.223022 444.322998 589.577026 423.969971 C 589.669006 423.161011 589.760986 422.363037 589.833008 421.554993 C 591.817993 401.989014 590.432983 382.22998 589.065002 362.603027"/>
    <path id="path12" fill="none" stroke="#ffffff" stroke-width="3.07" stroke-linecap="round" stroke-linejoin="round" d="M 620.614014 312.963013 C 622.223022 311.195007 624.289978 309.907959 626.585022 309.243042 C 628.880981 308.578003 631.315979 308.562012 633.619995 309.197021 C 640.190002 311.223022 644.406006 318.252991 644.507996 325.119995 C 644.609985 331.987 641.192993 338.545044 636.557007 343.619995 C 631.921021 348.695007 626.098999 352.511963 620.348022 356.268005 C 626.661987 352.921997 635.176025 355.704956 639.14801 361.640015 C 643.119995 367.575012 642.770996 375.802002 639.219971 381.993042 C 635.669006 388.18396 629.291992 392.455994 622.466003 394.549988 C 630.960022 402.327026 630.966003 417.492004 622.487 425.290039 C 614.007996 433.088013 597.887024 430.775024 590.835999 421.666992"/>
    <path id="path13" fill="none" stroke="#171717" stroke-width="3.07" stroke-linecap="round" stroke-linejoin="round" d="M 620.614014 312.963013 C 619.958008 314.863037 619.114014 316.692993 618.096985 318.427002 C 618.34198 316.386963 619.221985 314.474976 620.614014 312.963013 Z"/>
    <path id="path14" fill="none" stroke="#ffffff" stroke-width="3.07" stroke-linecap="round" stroke-linejoin="round" d="M 592.820984 294.707031 C 593.796997 291.959961 595.617004 289.593018 598.021973 287.946045 C 600.427002 286.299011 603.291992 285.455994 606.205017 285.539001 C 613.19397 285.896973 619.252014 291.545044 621.247986 298.247986 C 622.575012 303.098999 622.353027 308.244019 620.612976 312.963013"/>
    <path id="path15" fill="none" stroke="#171717" stroke-width="3.07" stroke-linecap="round" stroke-linejoin="round" d="M 592.822021 294.707031 C 592.791992 295.85199 592.624023 296.98999 592.322021 298.094971 C 592.296021 296.946045 592.465027 295.799988 592.822021 294.707031 L 592.822021 294.707031 Z"/>
    <path id="path16" fill="none" stroke="#ffffff" stroke-width="3.07" stroke-linecap="round" stroke-linejoin="round" d="M 477.373993 455.600006 C 471.152008 465.627991 455.843994 468.472992 446.428986 461.360992 C 437.014008 454.248993 435.571991 438.735962 443.52301 430.006958 C 433.045013 426.825012 428.450012 413.552979 431.222992 402.950989 C 433.996002 392.348999 442.039001 384.041016 450.102997 376.631958 C 438.294006 372.886963 430.548004 359.359009 433.303009 347.273987 C 436.058014 335.188965 448.877991 326.348022 461.147003 328.067017 C 452.653992 322.172974 451.546997 308.828979 457.585999 300.437988 C 463.625 292.046997 475.02301 288.609009 485.235992 290.214966 C 495.449005 291.821045 504.545013 297.776978 511.944 305.021973 C 507.431 297.93103 510.981995 287.646973 518.133972 283.256958 C 525.286011 278.867004 534.721985 279.593018 542.273987 283.276978 C 549.825989 286.960999 555.781006 293.203003 561.132996 299.677002 C 557.327026 289.995972 565.232971 277.72699 575.622986 277.195007 C 584.862976 276.734009 593.080017 285.677979 592.822998 294.703003"/>
    <path id="path17" fill="none" stroke="#ffffff" stroke-width="4" stroke-linecap="round" stroke-linejoin="round" d="M 590.159973 550.981018 L 590.159973 550.69397 C 590.252014 540.450989 588.70697 537.84198 582.966003 533.911987 C 577.174988 529.942017 569.734985 529.583984 562.715027 529.348999 L 544.705017 528.765015 C 541.789001 528.672974 538.862 528.580994 535.945984 528.479004 C 529.796021 528.283997 523.645996 528.085999 517.495972 527.88501 C 513.096008 527.742004 508.705994 527.609009 504.306 527.455017 C 497.428986 527.241028 490.556 527.02002 483.686005 526.789978 C 481.700989 526.729004 479.696014 526.66803 477.679993 526.646973 C 469.503998 526.554993 461.265991 527.077026 453.938995 530.546997 C 444.954987 534.794006 437.945007 544.955017 440.523987 554.492004 C 440.565002 554.64502 440.615997 554.791992 440.657013 554.942017 C 394.169006 555.791016 353.756989 571.723999 313.696991 590.031006 C 273.636993 608.338013 236.891006 635.781006 213.035995 672.804016 C 189.181 709.827026 179.410004 757.020996 192.425995 799.088989 C 205.425995 841.094971 239.886993 874.413025 280.019989 892.372009 C 320.153015 910.330994 365.445007 914.208984 409.261993 910.471985 C 443.614014 907.546021 478.631012 899.625 506.987 880.192993 C 508.338013 879.281982 509.667999 878.330994 510.987 877.357971 C 550.546997 848.057983 569.078979 802.237976 586.762024 756.29303"/>
    <path id="path18" fill="none" stroke="#ffffff" stroke-width="4" stroke-linecap="round" stroke-linejoin="round" d="M 590.601013 551.338989 C 631.086975 550.007996 671.604004 552.775024 711.533997 559.596985 C 748.310974 565.674988 785.875977 575.612 814.633972 599.33197 C 858.71698 635.689026 873.482971 700.617004 857.315002 755.414978 C 841.146973 810.213013 797.838013 854.455994 746.892029 880.307983 C 673.909973 917.330017 581.721985 916.471008 507.799011 881.372009"/>
    <path id="path19" fill="none" stroke="#ffffff" stroke-width="4" stroke-linecap="round" stroke-linejoin="round" d="M 481.076996 761.778992 L 481.087006 761.778992 L 522.111023 759.651001 L 586.763 756.294983 L 605.387024 755.322021 L 699.437988 750.440979 L 705.976013 750.104004 L 710.304993 649.932983"/>
    <path id="path20" fill="none" stroke="#ffffff" stroke-width="4" stroke-linecap="round" stroke-linejoin="round" d="M 349.625 670.645996 L 344.324005 768.882019 L 358.69101 768.13501 L 395.191986 766.242004"/>
    <path id="path21" fill="none" stroke="#ffffff" stroke-width="4" stroke-linecap="round" stroke-linejoin="round" d="M 358.649994 767.255981 C 370.898987 753.656006 389.359009 743.638 407.216003 739.627014 C 425.072998 735.616028 443.696014 736.046021 461.81601 738.614014 C 468.36499 739.544983 475.569 741.171997 479.36499 746.596008 C 482.415009 750.965027 482.352997 756.450012 481.084015 761.781006 C 480.484009 764.203979 479.700989 766.577026 478.740997 768.880981 C 472.498993 784.302002 463.554993 798.526001 453.454987 811.757019 C 451.20401 814.713989 448.809998 817.692017 445.636993 819.625977 C 442.463989 821.559998 438.279999 822.296997 434.994995 820.546997 C 433.699005 819.78302 432.591003 818.736023 431.752991 817.486023 C 430.915009 816.236023 430.368988 814.812988 430.154999 813.322998 C 429.92099 812.098999 429.859009 810.848999 429.971008 809.607971 C 430.338989 805.372009 432.334991 801.473022 434.299011 797.697021 C 440.929993 784.896973 447.567993 772.09198 454.213013 759.28302"/>
    <path id="path22" fill="none" stroke="#ffffff" stroke-width="4" stroke-linecap="round" stroke-linejoin="round" d="M 428.94101 813.567993 C 426.589996 815.992004 423.777008 817.921021 420.667999 819.241028 C 417.55899 820.560974 414.217987 821.244995 410.841003 821.252991 C 406.359009 821.252991 401.161011 819.309021 400.106995 814.953003 C 399.790985 813.379028 399.903992 811.75 400.43399 810.234985 C 400.748993 809.241028 401.115997 808.263977 401.533997 807.309021 C 408.690002 790.294006 416.93399 773.757019 426.216003 757.802002"/>
    <path id="path23" fill="none" stroke="#ffffff" stroke-width="4" stroke-linecap="round" stroke-linejoin="round" d="M 399.367004 809.883972 C 396.53299 811.674988 393.626007 813.484009 390.367004 814.283997 C 387.108002 815.083984 383.378998 814.684021 380.893005 812.452026 C 378.385986 810.200989 377.592987 806.507019 378.048004 803.159973 C 378.502991 799.812988 380.032013 796.744019 381.526001 793.726013 C 386.079987 784.567017 390.634003 775.405029 395.187012 766.23999 C 396.57901 763.445984 397.960999 760.663025 399.352997 757.869019"/>
    <path id="path24" fill="none" stroke="#ffffff" stroke-width="4" stroke-linecap="round" stroke-linejoin="round" d="M 605.366028 754.934021 C 612.666016 736.646973 631.166016 723.395996 650.820984 722.362 C 670.476013 721.328003 690.258972 732.594971 699.421021 750.021973"/>
    <path id="path25" fill="none" stroke="#ffffff" stroke-width="3.07" stroke-linecap="round" stroke-linejoin="round" d="M 440.647003 554.455994 C 449.247009 555.346008 457.173004 559.776978 463.647003 565.507996 C 470.121002 571.239014 475.346985 578.21698 480.510986 585.155029 C 487.438995 565.609985 494.411011 545.973022 504.292999 527.755005"/>
    <path id="path26" fill="none" stroke="#ffffff" stroke-width="3.07" stroke-linecap="round" stroke-linejoin="round" d="M 535.937012 528.734985 C 547.356995 549.528015 553.26001 572.817993 559.052002 595.822021 C 567.465027 579.711975 577.622009 564.575989 589.341003 550.684021"/>
    <path id="path27" fill="none" stroke="#ffffff" stroke-width="4" stroke-linecap="round" stroke-linejoin="round" d="M 517.466003 528.744995 C 521.344971 605.348999 522.877991 682.020996 522.065979 758.760986"/>
    <path id="path28" fill="none" stroke="#ffffff" stroke-width="3.07" stroke-linecap="round" stroke-linejoin="round" d="M 590.549988 653.856018 C 589.25 663.255981 587.950012 672.765991 588.799988 682.221008 C 589.650024 691.676025 592.822021 701.221008 599.400024 708.070007 C 605.978027 714.919006 616.335999 718.538025 625.341003 715.530029 C 630.979004 713.646973 635.625 709.390015 638.859009 704.395996 C 642.093018 699.401978 644.026001 693.671997 645.479004 687.911011 C 648.190002 677.161011 649.369019 666.08197 648.979004 655.002014 C 648.979004 654.919983 648.968994 654.838013 648.968994 654.755981"/>
    <path id="path29" fill="none" stroke="#ffffff" stroke-width="3.07" stroke-linecap="round" stroke-linejoin="round" d="M 589.44397 653.586975 L 590.559021 653.617004 C 602.992004 653.914001 615.424988 654.213989 627.859009 654.517029 L 637.723999 654.762024 C 641.244019 654.843994 644.773987 654.935974 648.304993 655.018005"/>
    <path id="path30" fill="none" stroke="#ffffff" stroke-width="4" stroke-linecap="round" stroke-linejoin="round" d="M 633.455994 689.421997 C 635.328003 677.940979 636.750977 666.388 637.723999 654.763 C 638.01001 651.346008 638.255981 647.906982 638.460999 644.479004 C 638.66803 642.809998 638.54303 641.116028 638.09198 639.495972 C 637.853027 638.687012 637.388 637.963989 636.750977 637.411011 C 636.11499 636.857971 635.333008 636.499023 634.5 636.375 C 632.065002 636.210999 630.325012 638.687012 629.445007 640.968994 C 627.887024 645.02002 627.349976 649.390991 627.880005 653.698975 C 628.197021 653.598999 628.513977 653.505005 628.830994 653.398987"/>
    <path id="path31" fill="none" stroke="#ffffff" stroke-width="2.784" stroke-linecap="round" stroke-linejoin="round" d="M 794.09198 700.495972 L 805.166016 690.862976"/>
    <path id="path32" fill="none" stroke="#ffffff" stroke-width="2.784" stroke-linecap="round" stroke-linejoin="round" d="M 803.960022 701.171021 L 796.109009 690.804016"/>
    <path id="path33" fill="none" stroke="#ffffff" stroke-width="2.784" stroke-linecap="round" stroke-linejoin="round" d="M 684.276001 663.015015 C 680.651978 661.653015 677.492004 659.283997 675.169006 656.187012"/>
    <path id="path34" fill="none" stroke="#ffffff" stroke-width="2.784" stroke-linecap="round" stroke-linejoin="round" d="M 674.72998 664.43103 L 682.901978 654.30603"/>
    <path id="path35" fill="none" stroke="#ffffff" stroke-width="2.784" stroke-linecap="round" stroke-linejoin="round" d="M 562.026001 624.934998 L 573.281982 614.414001 L 572.588989 614.781982"/>
    <path id="path36" fill="none" stroke="#ffffff" stroke-width="2.784" stroke-linecap="round" stroke-linejoin="round" d="M 570.176025 627.304993 C 568.677002 622.812012 566.210999 618.703003 562.953003 615.265991"/>
    <path id="path37" fill="none" stroke="#ffffff" stroke-width="2.784" stroke-linecap="round" stroke-linejoin="round" d="M 463.684998 692.278992 C 465.221008 689.281982 467.589996 686.79303 470.509003 685.112"/>
    <path id="path38" fill="none" stroke="#ffffff" stroke-width="2.784" stroke-linecap="round" stroke-linejoin="round" d="M 469.436005 693.348022 L 463.542999 685.247986"/>
    <path id="path39" fill="none" stroke="#ffffff" stroke-width="2.784" stroke-linecap="round" stroke-linejoin="round" d="M 377.006989 621.497986 C 379.358002 615.747009 382.774994 610.492981 387.07901 606.012024"/>
    <path id="path40" fill="none" stroke="#ffffff" stroke-width="2.784" stroke-linecap="round" stroke-linejoin="round" d="M 385.990997 619.823975 L 374.28299 608.424011"/>
    <path id="path41" fill="none" stroke="#ffffff" stroke-width="2.784" stroke-linecap="round" stroke-linejoin="round" d="M 319.237 741.005005 L 312.028015 734.249023"/>
    <path id="path42" fill="none" stroke="#ffffff" stroke-width="2.784" stroke-linecap="round" stroke-linejoin="round" d="M 309.657013 744.802979 L 318.807007 732.281982"/>
    <path id="path43" fill="none" stroke="#ffffff" stroke-width="2.784" stroke-linecap="round" stroke-linejoin="round" d="M 315.437012 862.301025 C 312.987 866.728027 309.718994 870.650024 305.806 873.857971"/>
    <path id="path44" fill="none" stroke="#ffffff" stroke-width="2.784" stroke-linecap="round" stroke-linejoin="round" d="M 314.131989 873.276001 L 308.049988 864.827026"/>
    <path id="path45" fill="none" stroke="#ffffff" stroke-width="2.784" stroke-linecap="round" stroke-linejoin="round" d="M 507.691986 818.406006 L 501.251007 808.30603 C 501.325989 808.286011 501.404999 808.289001 501.477997 808.315979 C 501.550995 808.343018 501.613007 808.392029 501.657013 808.455994 C 501.700989 808.520996 501.722992 808.596985 501.721008 808.674988 C 501.720001 808.752014 501.694 808.827026 501.647003 808.890015 C 501.600006 808.952026 501.536011 808.997986 501.462006 809.020996 C 501.388 809.044983 501.308014 809.044983 501.234009 809.020996 C 501.160004 808.997009 501.095001 808.950989 501.049011 808.888 C 501.002991 808.825989 500.97699 808.750977 500.976013 808.672974"/>
    <path id="path46" fill="none" stroke="#ffffff" stroke-width="2.784" stroke-linecap="round" stroke-linejoin="round" d="M 498.514008 818.085999 L 507.647003 808.919983"/>
    <path id="path47" fill="none" stroke="#ffffff" stroke-width="2.784" stroke-linecap="round" stroke-linejoin="round" d="M 677.536011 810.802979 L 670.335999 804.03302"/>
    <path id="path48" fill="none" stroke="#ffffff" stroke-width="2.784" stroke-linecap="round" stroke-linejoin="round" d="M 669.856995 812.700989 L 676.598022 804.515015"/>
    <path id="path49" fill="none" stroke="#ffffff" stroke-width="2.784" stroke-linecap="round" stroke-linejoin="round" d="M 258.992004 690.484985 L 249.604004 683.617981"/>
    <path id="path50" fill="none" stroke="#ffffff" stroke-width="2.784" stroke-linecap="round" stroke-linejoin="round" d="M 250.352997 692.700989 L 256.803009 681.11499"/>
    <path id="path51" fill="none" stroke="#ffffff" stroke-width="2.784" stroke-linecap="round" stroke-linejoin="round" d="M 795.950989 805.775024 L 788.125977 795.570007"/>
    <path id="path52" fill="none" stroke="#ffffff" stroke-width="2.784" stroke-linecap="round" stroke-linejoin="round" d="M 785.872009 806.013 C 790.468994 803.299988 794.734009 800.059998 798.58197 796.359985"/>
    <path id="path53" fill="none" stroke="#ffffff" stroke-width="2.784" stroke-linecap="round" stroke-linejoin="round" d="M 723.309998 596.004028 L 730.051025 585.409973"/>
    <path id="path54" fill="none" stroke="#ffffff" stroke-width="2.784" stroke-linecap="round" stroke-linejoin="round" d="M 730.52002 595.05603 L 720.309021 586.504028"/>
    <path id="path55" fill="none" stroke="#ffffff" stroke-width="4" stroke-linecap="round" stroke-linejoin="round" d="M 63.2966 471.032013 C 47.7626 512.955994 37.3526 557.58197 40.591599 602.171997 C 41.563599 615.562012 43.8606 629.163025 50.330601 640.926025 C 56.800598 652.689026 68.039597 662.439026 81.330597 664.338013 C 94.621597 666.237 109.443001 658.638 113.296997 645.776001 C 117.151001 632.914001 106.632004 617.120972 93.226601 617.862 C 82.965599 618.429016 74.737602 627.762024 72.688599 637.833008 C 70.639603 647.903992 73.5886 658.356018 77.871597 667.698975 C 83.496597 679.978027 91.386597 691.073975 97.740601 702.992004 C 104.095001 714.909973 108.987 728.192017 107.823997 741.648987 C 106.661003 755.106018 98.152603 768.599976 85.142601 772.228027 C 72.132599 775.856018 56.107601 766.09198 56.191601 752.585999"/>
    <path id="path56" fill="none" stroke="#ffffff" stroke-width="4" stroke-linecap="round" stroke-linejoin="round" d="M 915.491028 341.223022 C 914.296997 374.622986 912.755005 409.364014 896.937012 438.802002 C 892.437012 447.166992 886.637024 455.153015 878.528015 460.10199 C 870.419006 465.050995 859.661987 466.432007 851.427979 461.696991 C 843.19397 456.962006 839.057983 445.302979 844.111023 437.263 C 849.810974 428.188965 864.203979 428.026001 872.348999 434.989014 C 880.494019 441.952026 883.208984 453.537994 882.723999 464.243011 C 882.077026 478.518005 876.682007 492.093994 871.34198 505.342987 C 866.002014 518.59198 860.575989 532.156006 859.859009 546.426025 C 859.142029 560.695984 864.004028 576.072998 875.653015 584.348022 C 887.302002 592.622986 906.153015 590.705994 913.187988 578.268005 C 920.223022 565.830017 908.088013 546.718994 894.278015 550.379028 C 890.393005 551.502014 886.963013 553.825012 884.478027 557.015991 C 876.927979 566.372986 878.31897 581.655029 887.435974 589.494995 C 896.552979 597.335022 911.869995 596.422974 919.992004 587.557007"/>
    <path id="path57" fill="none" stroke="#ffffff" stroke-width="4" stroke-linecap="round" stroke-linejoin="round" d="M 509.049011 243.05603 L 498.123993 153.410034"/>
    <path id="path58" fill="none" stroke="#ffffff" stroke-width="2.784" stroke-linecap="round" stroke-linejoin="round" d="M 473.613007 251.046997 C 464.28299 246.254028 455.701996 240.125977 448.140015 232.856018"/>
    <path id="path59" fill="none" stroke="#ffffff" stroke-width="4" stroke-linecap="round" stroke-linejoin="round" d="M 540.906006 240.80603 L 548.156982 222.759033"/>
    <path id="path60" fill="none" stroke="#ffffff" stroke-width="4" stroke-linecap="round" stroke-linejoin="round" d="M 627.646973 193.469971 C 636.880005 189.65802 638.47699 177.070007 636.202026 167.346985 C 633.927002 157.624023 629.22998 147.898987 631.182007 138.103027 C 633.226013 127.841003 642.229004 120.281006 651.802979 116.059998 C 662.302979 111.434021 674.320984 109.841003 685.403015 112.810974 C 696.484985 115.781006 706.422974 123.593018 710.846985 134.174988 C 715.270996 144.757019 713.55603 157.942993 705.715027 166.312988 C 698.257996 174.271973 686.963989 176.96698 676.789978 180.895996 C 666.616028 184.825012 655.973022 191.804016 654.434998 202.60199"/>
    <path id="path61" fill="none" stroke="#ffffff" stroke-width="4" stroke-linecap="round" stroke-linejoin="round" d="M 661.669983 180.90802 C 666.507019 175.208008 670.04303 168.52301 672.03302 161.317993 C 669.468994 163.396973 665.780029 165.528015 663.161987 163.518005 C 660.593018 161.544983 661.599976 157.518005 662.848022 154.528015 C 662.666016 155.304993 662.322998 156.035034 661.841003 156.671021 C 661.357971 157.307007 660.747009 157.833984 660.047974 158.218018 C 659.348022 158.60199 658.575989 158.835022 657.781006 158.901001 C 656.984985 158.96698 656.184998 158.86499 655.432007 158.601013 C 654.677979 158.337036 653.989014 157.917969 653.40802 157.370972 C 652.828003 156.822998 652.369019 156.158997 652.062012 155.422974 C 651.755005 154.686035 651.606018 153.893005 651.625 153.094971 C 651.643982 152.297974 651.830994 151.513 652.174011 150.791992 L 647.413025 172.891968"/>
    <path id="path62" fill="none" stroke="#ffffff" stroke-width="4" stroke-linecap="round" stroke-linejoin="round" d="M 726.791992 427.05603 C 750.070984 416.025024 771.679993 405.618042 793.299988 391.613037 C 795.505981 390.369995 797.450989 388.712036 799.026978 386.730957 C 800.471985 384.660034 801.049011 381.781982 799.781982 379.598022 C 798.523987 377.429993 795.849976 376.511963 793.354004 376.287964 C 786.669006 375.687988 780.263 378.778015 774.299988 381.860962 C 756.900024 390.856995 739.494019 399.294006 722.791992 409.55603"/>
    <path id="path63" fill="none" stroke="#ffffff" stroke-width="4" stroke-linecap="round" stroke-linejoin="round" d="M 721.916016 410.165039 L 703.067017 428.618042 L 726.676025 427.156006"/>
    <path id="path64" fill="none" stroke="#ffffff" stroke-width="4" stroke-linecap="round" stroke-linejoin="round" d="M 717.291992 427.55603 L 713.291992 419.55603"/>
    <path id="path65" fill="none" stroke="#ffffff" stroke-width="4" stroke-linecap="round" stroke-linejoin="round" d="M 783.005981 396.889038 L 777.218018 381.000977"/>
    <path id="path66" fill="none" stroke="#ffffff" stroke-width="4" stroke-linecap="round" stroke-linejoin="round" d="M 756.291016 286.367004 L 753.406006 269.755981"/>
    <path id="path67" fill="none" stroke="#ffffff" stroke-width="4" stroke-linecap="round" stroke-linejoin="round" d="M 746.869019 280.504028 L 762.046997 274.026978"/>
    <path id="path68" fill="none" stroke="#ffffff" stroke-width="4" stroke-linecap="round" stroke-linejoin="round" d="M 771.465027 273.365967 L 773.304016 283.983032 L 772.765991 280.610962"/>
    <path id="path69" fill="none" stroke="#ffffff" stroke-width="4" stroke-linecap="round" stroke-linejoin="round" d="M 781.083008 277.997986 L 759.375 294.562012"/>
    <path id="path70" fill="none" stroke="#ffffff" stroke-width="4" stroke-linecap="round" stroke-linejoin="round" d="M 757.491028 477.90799 L 751.156982 465.544006"/>
    <path id="path71" fill="none" stroke="#ffffff" stroke-width="4" stroke-linecap="round" stroke-linejoin="round" d="M 743.346008 478.576996 L 764.51001 462.97699"/>
    <path id="path72" fill="none" stroke="#ffffff" stroke-width="4" stroke-linecap="round" stroke-linejoin="round" d="M 582.937988 180.90802 L 575.715027 166.460999"/>
    <path id="path73" fill="none" stroke="#ffffff" stroke-width="4" stroke-linecap="round" stroke-linejoin="round" d="M 571.344971 177.962036 L 585.078003 169.307983"/>
    <path id="path74" fill="none" stroke="#ffffff" stroke-width="4" stroke-linecap="round" stroke-linejoin="round" d="M 776.533997 179.44397 L 762.812012 170.049988"/>
    <path id="path75" fill="none" stroke="#ffffff" stroke-width="4" stroke-linecap="round" stroke-linejoin="round" d="M 772.405029 168.05603 L 763.166016 181.164001"/>
    <path id="path76" fill="none" stroke="#ffffff" stroke-width="4" stroke-linecap="round" stroke-linejoin="round" d="M 279.54599 290.422974 C 279.812012 295.458008 282.677002 300.484985 287.279999 302.541992 C 302.148987 309.186035 312.696991 287.263 303.897003 276.457031 C 293.519989 263.713989 278.85199 277.329956 279.54599 290.422974 Z"/>
    <path id="path77" fill="none" stroke="#ffffff" stroke-width="4" stroke-linecap="round" stroke-linejoin="round" d="M 351.757996 372.348022 L 343.744995 360.838013"/>
    <path id="path78" fill="none" stroke="#ffffff" stroke-width="4" stroke-linecap="round" stroke-linejoin="round" d="M 340.968994 372.337036 L 354.701996 361.511963"/>
    <path id="path79" fill="none" stroke="#ffffff" stroke-width="4" stroke-linecap="round" stroke-linejoin="round" d="M 209.462997 309.520996 L 196.656006 299.167969"/>
    <path id="path80" fill="none" stroke="#ffffff" stroke-width="4" stroke-linecap="round" stroke-linejoin="round" d="M 196.513 310.937012 L 205.177002 295.042969"/>
    <path id="path81" fill="none" stroke="#ffffff" stroke-width="4" stroke-linecap="round" stroke-linejoin="round" d="M 191.097 845.840027 C 183.606003 839.267029 177.544006 831.226013 173.287003 822.216003 C 169.029007 813.205017 166.667007 803.416992 166.345993 793.455994"/>
    <path id="path82" fill="none" stroke="#ffffff" stroke-width="4" stroke-linecap="round" stroke-linejoin="round" d="M 822.719971 854.05603 C 838.388977 845.76001 852.093994 834.195007 862.906006 820.143005 C 873.718018 806.091003 881.385986 789.880981 885.390015 772.607971"/>
    <path id="path83" fill="none" stroke="#ffffff" stroke-width="4" stroke-linecap="round" stroke-linejoin="round" d="M 157.710999 525.101013 C 154.856003 522.887024 152.550003 520.044006 150.970993 516.79303 C 149.393005 513.54303 148.585007 509.971985 148.610992 506.359009 C 148.636002 502.746002 149.494003 499.187012 151.117996 495.959015 C 152.742004 492.731995 155.087997 489.92099 157.973999 487.747009 C 163.179993 483.825012 170.031998 482.035004 174.197998 477.02301 C 179.119003 471.10199 178.822998 462.471985 177.298004 454.923004 C 175.192993 444.552002 171.281006 434.630981 165.740997 425.614014"/>
    <path id="path84" fill="none" stroke="#ffffff" stroke-width="4" stroke-linecap="round" stroke-linejoin="round" d="M 275.871002 472.618988 C 266.602997 451.919006 257.31601 431.158997 250.335007 409.573975 C 247.751999 401.588989 245.608002 392.39801 249.914001 385.19397 C 251.113998 383.19397 252.988007 381.35498 255.313995 381.172974 C 258.294006 380.940002 260.729004 383.406006 262.614014 385.723022 C 280.514008 407.679993 291.390991 434.389038 301.755005 460.752991"/>
    <path id="path85" fill="none" stroke="#ffffff" stroke-width="4" stroke-linecap="round" stroke-linejoin="round" d="M 276.291992 472.556 L 301.291992 461.556"/>
    <path id="path86" fill="none" stroke="#ffffff" stroke-width="4" stroke-linecap="round" stroke-linejoin="round" d="M 264.412994 420.322998 C 265.496002 418.379028 266.424988 417.526001 268.187988 416.166992 C 269.700989 414.915039 272.187988 415.499023 273.388 417.052979 C 273.937012 417.869995 274.290009 418.802002 274.417999 419.778015 C 274.54599 420.754028 274.446014 421.745972 274.126007 422.676025 C 273.877014 423.636963 273.43399 424.536987 272.824005 425.321045 C 272.214996 426.105957 271.451996 426.756958 270.582001 427.235962 C 269.699005 427.692993 268.699005 427.870972 267.713013 427.745972 C 266.72699 427.620972 265.802002 427.198975 265.061005 426.536011 C 263.490997 424.968018 263.471008 422.333008 264.412994 420.322998 Z"/>
    <path id="path87" fill="none" stroke="#ffffff" stroke-width="4" stroke-linecap="round" stroke-linejoin="round" d="M 264.154999 449.10199 C 259.786011 456.20401 257.393005 464.343994 257.222992 472.681 C 257.052002 481.018005 259.112 489.248993 263.187012 496.523987 C 263.371002 491.667999 264.523987 486.898987 266.57901 482.494995 C 268.634003 478.09201 271.548004 474.144989 275.151001 470.88501"/>
    <path id="path88" fill="none" stroke="#ffffff" stroke-width="4" stroke-linecap="round" stroke-linejoin="round" d="M 289.855988 430.936035 C 299.787994 428.077026 310.786987 432.547974 317.88501 440.062012 C 324.983002 447.575989 328.740997 457.649994 331.067993 467.720001 C 322.484985 461.643005 312.134003 458.571991 301.625 458.984009"/>
    <path id="path89" fill="none" stroke="#ffffff" stroke-width="4" stroke-linecap="round" stroke-linejoin="round" d="M 301.015015 476.765015 C 295.609985 478.596008 290.346008 480.816986 285.264008 483.412994"/>
    <path id="path90" fill="none" stroke="#ffffff" stroke-width="4" stroke-linecap="round" stroke-linejoin="round" d="M 285.369995 482.839996 L 284.553986 525.007996 L 294.131012 504.971008 L 306.766998 536.250977 L 306.139008 508.070007 C 312.414001 515.349976 319.464996 521.924011 327.166992 527.674988 L 314.234985 505.264008 C 322.601013 506.230011 331.076996 505.346008 339.063995 502.674988 C 331.095001 499.358002 322.829987 496.803009 314.380005 495.045013 L 325.440002 488.106995 C 317.440002 484.487 309.458008 480.829987 301.493988 477.136993"/>
    <path id="path91" fill="none" stroke="#ffffff" stroke-width="4" stroke-linecap="round" stroke-linejoin="round" d="M 122.816002 536.250977 L 166.345001 551.015015 L 196.656006 468.029999"/>
    <path id="path92" fill="none" stroke="#ffffff" stroke-width="4" stroke-linecap="round" stroke-linejoin="round" d="M 209.464005 166.460999 L 269.11499 208.356018 L 274.450989 126.599976 L 209.464005 166.460999 Z"/>
    <path id="path93" fill="none" stroke="#ffffff" stroke-width="4" stroke-linecap="round" stroke-linejoin="round" d="M 519.867004 89.89502 L 535.007996 48 L 549.004028 82.671997 L 519.867004 89.89502 Z"/>
    <path id="path94" fill="none" stroke="#ffffff" stroke-width="4" stroke-linecap="round" stroke-linejoin="round" d="M 720.309021 258.919006 L 723.14801 286.367004 L 754.851013 243.054016 L 798.58197 269.754028"/>
    <path id="path95" fill="none" stroke="#ffffff" stroke-width="4" stroke-linecap="round" stroke-linejoin="round" d="M 822.719971 304.344971 L 854.054993 329.707031 L 871.145996 294.562012 L 822.719971 304.344971 Z"/>
    <path id="path96" fill="none" stroke="#ffffff" stroke-width="4" stroke-linecap="round" stroke-linejoin="round" d="M 440.645996 198.231018 L 385.993011 126.599976 L 331.067993 173.63501 L 369.760986 240.80603 L 440.645996 198.231018 Z"/>
    <path id="path97" fill="none" stroke="#ffffff" stroke-width="4" stroke-linecap="round" stroke-linejoin="round" d="M 354.700989 183.703003 L 395.192993 156.953003 L 382.041992 145.514038 L 344.32901 173.63501 L 354.700989 183.703003 Z"/>
    <path id="path98" fill="none" stroke="#ffffff" stroke-width="4" stroke-linecap="round" stroke-linejoin="round" d="M 362.628998 192.825989 L 398.744995 169.307983"/>
    <path id="path99" fill="none" stroke="#ffffff" stroke-width="4" stroke-linecap="round" stroke-linejoin="round" d="M 372.019012 203.299988 L 407.773987 180.90802"/>
    <path id="path100" fill="none" stroke="#ffffff" stroke-width="4" stroke-linecap="round" stroke-linejoin="round" d="M 378.881012 216.302002 L 414.997009 192.825989"/>
    <path id="path101" fill="none" stroke="#ffffff" stroke-width="4" stroke-linecap="round" stroke-linejoin="round" d="M 399.916992 518.594971 L 385.993011 483.569 L 414.996002 483.412994 L 399.916992 518.594971 Z"/>
    <path id="path102" fill="none" stroke="#ffffff" stroke-width="4" stroke-linecap="round" stroke-linejoin="round" d="M 626.091003 194.588013 C 623.044983 204.572998 619.047974 214.242981 614.156006 223.464966 L 635.440979 235.197998 L 644.841003 219.971008 C 646.630981 217.070984 654.348999 208.214966 654.002991 204.971008 C 653.66803 201.833984 644.677979 199.370972 642.002991 198.416016 C 636.85199 196.570984 631.518005 195.287964 626.091003 194.588013 L 626.091003 194.588013 Z"/>
    <path id="path103" fill="none" stroke="#ffffff" stroke-width="2.784" stroke-linecap="round" stroke-linejoin="round" d="M 648.057007 215.156006 C 641.177002 209.463989 633.466003 204.858032 625.190979 201.499023"/>
    <path id="path104" fill="none" stroke="#ffffff" stroke-width="2.784" stroke-linecap="round" stroke-linejoin="round" d="M 640.330994 224.639038 L 622.442993 206.771973"/>
    <path id="path105" fill="none" stroke="#ffffff" stroke-width="2.784" stroke-linecap="round" stroke-linejoin="round" d="M 636.179993 232.070007 C 630.033997 226.658997 624.359985 220.735962 619.218018 214.364014"/>
    <path id="path106" fill="none" stroke="#ffffff" stroke-width="2.784" stroke-linecap="round" stroke-linejoin="round" d="M 723.017029 133.801025 L 733.862976 130.221008"/>
    <path id="path107" fill="none" stroke="#ffffff" stroke-width="2.784" stroke-linecap="round" stroke-linejoin="round" d="M 702.161987 107.971008 L 713.674988 81.371094 L 713.674988 83.399109"/>
    <path id="path108" fill="none" stroke="#ffffff" stroke-width="4" stroke-linecap="round" stroke-linejoin="round" d="M 658.130005 102.174011 C 658.117004 99.04187 657.064026 96.002625 655.137024 93.533203"/>
    <path id="path109" fill="none" stroke="#ffffff" stroke-width="4" stroke-linecap="round" stroke-linejoin="round" d="M 625.554993 121.677002 L 610.385986 111.565002"/>
    <path id="path110" fill="none" stroke="#ffffff" stroke-width="4" stroke-linecap="round" stroke-linejoin="round" d="M 621.221985 156.356018 L 612.554016 157.799988"/>
    <path id="path111" fill="none" stroke="#ffffff" stroke-width="2.784" stroke-linecap="round" stroke-linejoin="round" d="M 722.984985 161.596985 L 740.757996 169.25"/>
    <path id="path112" fill="none" stroke="#ffffff" stroke-width="4" stroke-linecap="round" stroke-linejoin="round" d="M 701.159973 182.455994 L 703.307983 187.52002"/>
    <path id="path113" fill="none" stroke="#ffffff" stroke-width="4" stroke-linecap="round" stroke-linejoin="round" d="M 681.172974 193.910034 L 681.049988 219.802002 C 680.932983 219.875 680.799011 219.916016 680.661011 219.921021 C 680.523987 219.927002 680.387024 219.896973 680.263977 219.833984 C 680.142029 219.770996 680.036987 219.677002 679.960999 219.562012 C 679.88501 219.447021 679.841003 219.315002 679.830994 219.177002"/>
    <path id="path114" fill="#ffffff" fill-rule="evenodd" stroke="none" d="M 489.431 368.712036 C 495.776001 363.411011 504.554993 362.39801 512.79303 361.773987 C 538.202026 359.85199 563.705994 359.48999 589.161011 360.688965 L 589.06897 362.603027 L 589.078003 362.73999 C 590.442993 382.322021 591.817017 402.033997 589.836975 421.554993 L 590.836975 421.666992 C 597.888 430.775024 614.008972 433.088013 622.487976 425.290039 C 630.96698 417.492004 630.960999 402.327026 622.46698 394.549988 C 629.29303 392.455994 635.672974 388.179993 639.223999 381.989014 C 642.775024 375.797974 643.124023 367.571045 639.151978 361.635986 C 635.179993 355.700989 626.666016 352.917969 620.35199 356.264038 C 626.103027 352.507996 631.924988 348.69104 636.560974 343.615967 C 641.197021 338.541016 644.614014 331.983032 644.512024 325.115967 C 644.409973 318.249023 640.19397 311.218994 633.624023 309.192993 C 631.31897 308.55896 628.883972 308.575012 626.588989 309.239014 C 624.29303 309.903992 622.226013 311.192017 620.617981 312.958984 C 622.356995 308.23999 622.578979 303.094971 621.252991 298.244019 C 619.257019 291.541016 613.198975 285.893005 606.210022 285.535034 C 603.296021 285.452026 600.43103 286.295044 598.026001 287.942017 C 595.622009 289.588989 593.801025 291.955994 592.825989 294.703003 C 593.083008 285.677979 584.866028 276.734009 575.625977 277.195007 C 565.236023 277.72699 557.330017 289.995972 561.135986 299.677002 C 555.783997 293.203003 549.828979 286.960999 542.276978 283.276978 C 534.724976 279.593018 525.289001 278.867004 518.137024 283.256958 C 510.984985 287.646973 507.43399 297.93103 511.946991 305.021973 C 504.548004 297.776978 495.451996 291.821045 485.239014 290.214966 C 475.026001 288.609009 463.627991 292.046997 457.588989 300.437988 C 451.549988 308.828979 452.657013 322.172974 461.149994 328.067017 C 448.881012 326.348022 436.061005 335.188965 433.306 347.273987 C 430.550995 359.359009 438.296997 372.886963 450.105988 376.631958 C 442.041992 384.041016 433.998993 392.348999 431.226013 402.950989 C 428.453003 413.552979 433.048004 426.825012 443.526001 430.006958 C 435.575012 438.735962 437.016998 454.248993 446.432007 461.360992 C 455.846985 468.472992 471.154999 465.627991 477.377014 455.600006 L 478.61499 455.619995 C 478.852997 437.588989 479.095001 419.55896 479.341003 401.528992 C 479.494995 389.700012 480.36499 376.304993 489.431 368.712036 Z M 592.325989 298.091003 C 592.627991 296.985962 592.796021 295.848022 592.825989 294.703003 C 592.468994 295.796021 592.299988 296.94104 592.325989 298.091003 Z M 618.101013 318.422974 C 619.117981 316.688965 619.960999 314.859009 620.617981 312.958984 C 619.226013 314.471008 618.344971 316.381958 618.101013 318.422974 Z M 597.91803 296.903992 C 597.148987 296.545044 596.236023 296.877991 595.877991 297.645996 C 595.518982 298.414001 595.851013 299.327026 596.619019 299.686035 C 605.580994 303.868042 610.112976 315.773987 606.200012 324.856995 C 605.908997 325.531982 606.138 326.317993 606.744995 326.731995 C 607.353027 327.145996 608.169006 327.071045 608.690979 326.553955 C 612.211975 323.061035 618.83197 323.384033 622.547974 327.036011 C 626.247009 330.671997 627.080017 336.860962 624.984985 341.846008 C 622.893982 346.823975 618.271973 350.598022 613.01001 352.513 C 612.213013 352.802979 611.802002 353.68396 612.09198 354.480957 C 612.382019 355.276978 613.263 355.687988 614.059021 355.39801 C 619.927002 353.263 625.31897 348.978027 627.815979 343.035034 C 630.309021 337.099976 629.445984 329.511963 624.700012 324.846008 C 621.031006 321.240967 615.065979 320.026978 610.29303 321.924011 C 612.187988 312.145996 607.059998 301.170044 597.91803 296.903992 Z"/>
    <g id="Group" opacity="0.1">
        <path id="path115" fill="#ffffff" stroke="none" d="M 452.957001 554.844971 C 398.015015 554.862976 342.902008 571.234009 295.313995 598.369995 C 252.153 622.981018 212.686005 658.317993 194.725006 705.726013 C 185.673004 729.625977 182.602997 755.731018 187.009995 780.937988 C 191.432999 806.229004 204.567001 828.960022 223.050003 846.614014 C 259.178009 881.119995 309.384003 900.578003 358.330994 907.013977 C 386.113007 910.619995 414.283997 909.945007 441.862 905.013977 C 455.472992 902.616028 468.86499 899.109985 481.904999 894.528992 C 495.045013 889.901001 508.654999 884.713013 520.005005 876.541016 C 523.372009 874.117004 525.192993 870.15802 523.419006 866.122009 C 521.895996 862.656982 517.497986 859.742981 513.575989 861.291016 C 502.735992 865.567993 492.38501 870.901978 481.454987 874.974976 C 449.240997 886.97699 414.901001 892.211975 380.575012 890.35498 C 334.888 888.083984 289.437012 873.304016 252.214005 846.482971 C 233.541 833.028015 217.024002 815.132019 209.337997 793.10199 C 201.901001 771.789978 201.337997 747.848022 206.75 725.991028 C 218.001007 680.549011 252.535995 645.164001 290.867004 620.406006 C 339.585999 588.937012 395.498993 571.927979 452.954987 566.184998 C 460.071014 565.473022 460.404999 554.838013 452.954987 554.841003 L 452.957001 554.844971 Z"/>
    </g>
    <g id="g1" opacity="0.1">
        <path id="path116" fill="#ffffff" stroke="none" d="M 719.896973 745.473022 C 722.658997 730.453003 723.013977 714.625 724.143005 699.406006 L 725.812012 676.906006 C 726.382019 669.229004 728.075989 660.752014 726.59198 653.176025 C 724.903992 644.554016 713.044983 646.059998 710.59198 653.176025 C 708.231018 660.025024 708.916992 668.715027 708.453003 675.927002 L 707.002991 698.427002 C 706.049011 713.23999 704.159973 728.596985 704.809998 743.427002 C 705.169006 751.637024 718.257019 754.395996 719.89801 745.468994 L 719.896973 745.473022 Z"/>
    </g>
    <g id="g2" opacity="0.1">
        <path id="path117" fill="#ffffff" stroke="none" d="M 516.742004 881.455017 C 518.84198 884.892029 520.323975 887.413025 524.033997 889.44397 C 528.116028 891.679016 532.676025 893.005981 537.103027 894.36499 C 544.85498 896.744995 552.708008 898.812012 560.65802 900.41803 C 577.096008 903.744995 593.781006 905.703979 610.541992 906.273987 C 644.140991 907.510986 677.679016 902.507019 709.453003 891.513977 C 726.978027 885.379028 744.153015 878.383972 757.862976 865.557007 C 759.716003 863.822998 757.763 860.95697 755.491028 861.482971 C 740.299988 864.982971 725.976013 870.799988 711.065002 875.28302 C 695.755005 879.828979 680.117981 883.190979 664.291992 885.340027 C 633.544006 889.594971 601.843018 889.507019 571.278992 883.914001 C 562.755981 882.354004 554.27002 880.469971 545.901001 878.228027 C 541.583984 877.072021 537.333984 875.593018 532.987976 874.567993 C 530.674011 873.947021 528.299011 873.58197 525.906006 873.47998 C 523.447998 873.466003 521.536011 874.536987 519.263 875.254028 C 518.64502 875.434021 518.075012 875.752014 517.596985 876.182983 C 517.119019 876.614014 516.744995 877.14801 516.502014 877.744019 C 516.26001 878.341003 516.155029 878.984009 516.195984 879.627014 C 516.237976 880.268982 516.424011 880.893982 516.741028 881.453979 L 516.742004 881.455017 Z"/>
    </g>
</svg>
