<svg width="25" height="24" viewBox="0 0 25 24" fill="none" xmlns="http://www.w3.org/2000/svg">
<path d="M12.1153 14C11.832 14 11.5946 13.904 11.4033 13.712C11.2113 13.5207 11.1153 13.2833 11.1153 13C11.1153 12.7167 11.2113 12.479 11.4033 12.287C11.5946 12.0957 11.832 12 12.1153 12C12.3986 12 12.6363 12.0957 12.8283 12.287C13.0196 12.479 13.1153 12.7167 13.1153 13C13.1153 13.2833 13.0196 13.5207 12.8283 13.712C12.6363 13.904 12.3986 14 12.1153 14ZM8.1153 14C7.83196 14 7.5943 13.904 7.4023 13.712C7.21096 13.5207 7.1153 13.2833 7.1153 13C7.1153 12.7167 7.21096 12.479 7.4023 12.287C7.5943 12.0957 7.83196 12 8.1153 12C8.39863 12 8.6363 12.0957 8.8283 12.287C9.01963 12.479 9.1153 12.7167 9.1153 13C9.1153 13.2833 9.01963 13.5207 8.8283 13.712C8.6363 13.904 8.39863 14 8.1153 14ZM16.1153 14C15.832 14 15.5946 13.904 15.4033 13.712C15.2113 13.5207 15.1153 13.2833 15.1153 13C15.1153 12.7167 15.2113 12.479 15.4033 12.287C15.5946 12.0957 15.832 12 16.1153 12C16.3986 12 16.636 12.0957 16.8273 12.287C17.0193 12.479 17.1153 12.7167 17.1153 13C17.1153 13.2833 17.0193 13.5207 16.8273 13.712C16.636 13.904 16.3986 14 16.1153 14ZM12.1153 18C11.832 18 11.5946 17.904 11.4033 17.712C11.2113 17.5207 11.1153 17.2833 11.1153 17C11.1153 16.7167 11.2113 16.4793 11.4033 16.288C11.5946 16.096 11.832 16 12.1153 16C12.3986 16 12.6363 16.096 12.8283 16.288C13.0196 16.4793 13.1153 16.7167 13.1153 17C13.1153 17.2833 13.0196 17.5207 12.8283 17.712C12.6363 17.904 12.3986 18 12.1153 18ZM8.1153 18C7.83196 18 7.5943 17.904 7.4023 17.712C7.21096 17.5207 7.1153 17.2833 7.1153 17C7.1153 16.7167 7.21096 16.4793 7.4023 16.288C7.5943 16.096 7.83196 16 8.1153 16C8.39863 16 8.6363 16.096 8.8283 16.288C9.01963 16.4793 9.1153 16.7167 9.1153 17C9.1153 17.2833 9.01963 17.5207 8.8283 17.712C8.6363 17.904 8.39863 18 8.1153 18ZM16.1153 18C15.832 18 15.5946 17.904 15.4033 17.712C15.2113 17.5207 15.1153 17.2833 15.1153 17C15.1153 16.7167 15.2113 16.4793 15.4033 16.288C15.5946 16.096 15.832 16 16.1153 16C16.3986 16 16.636 16.096 16.8273 16.288C17.0193 16.4793 17.1153 16.7167 17.1153 17C17.1153 17.2833 17.0193 17.5207 16.8273 17.712C16.636 17.904 16.3986 18 16.1153 18ZM5.1153 22C4.5653 22 4.0943 21.8043 3.7023 21.413C3.31096 21.021 3.1153 20.55 3.1153 20V6C3.1153 5.45 3.31096 4.97933 3.7023 4.588C4.0943 4.196 4.5653 4 5.1153 4H6.1153V2H8.1153V4H16.1153V2H18.1153V4H19.1153C19.6653 4 20.1363 4.196 20.5283 4.588C20.9196 4.97933 21.1153 5.45 21.1153 6V20C21.1153 20.55 20.9196 21.021 20.5283 21.413C20.1363 21.8043 19.6653 22 19.1153 22H5.1153ZM5.1153 20H19.1153V10H5.1153V20Z" fill="white"/>
</svg>
