<svg width="25" height="24" viewBox="0 0 25 24" fill="none" xmlns="http://www.w3.org/2000/svg">
<path d="M12.1153 2C15.4253 2 18.1153 4.66 18.1153 7.95C18.1153 12.41 12.1153 19 12.1153 19C12.1153 19 6.1153 12.41 6.1153 7.95C6.1153 4.66 8.8053 2 12.1153 2ZM12.1153 6C11.5849 6 11.0762 6.21071 10.7011 6.58579C10.326 6.96086 10.1153 7.46957 10.1153 8C10.1153 8.53043 10.326 9.03914 10.7011 9.41421C11.0762 9.78929 11.5849 10 12.1153 10C12.6457 10 13.1544 9.78929 13.5295 9.41421C13.9046 9.03914 14.1153 8.53043 14.1153 8C14.1153 7.46957 13.9046 6.96086 13.5295 6.58579C13.1544 6.21071 12.6457 6 12.1153 6ZM20.1153 19C20.1153 21.21 16.5353 23 12.1153 23C7.6953 23 4.1153 21.21 4.1153 19C4.1153 17.71 5.3353 16.56 7.2253 15.83L7.8653 16.74C6.7853 17.19 6.1153 17.81 6.1153 18.5C6.1153 19.88 8.8053 21 12.1153 21C15.4253 21 18.1153 19.88 18.1153 18.5C18.1153 17.81 17.4453 17.19 16.3653 16.74L17.0053 15.83C18.8953 16.56 20.1153 17.71 20.1153 19Z" fill="white"/>
</svg>
