<svg width="25" height="24" viewBox="0 0 25 24" fill="none" xmlns="http://www.w3.org/2000/svg">
<path d="M14.6653 16.55L11.1153 13V8H13.1153V12.175L16.0653 15.125L14.6653 16.55ZM11.1153 6V4H13.1153V6H11.1153ZM18.1153 13V11H20.1153V13H18.1153ZM11.1153 20V18H13.1153V20H11.1153ZM4.1153 13V11H6.1153V13H4.1153ZM12.1153 22C10.732 22 9.43196 21.7373 8.2153 21.212C6.99863 20.6873 5.9403 19.975 5.0403 19.075C4.1403 18.175 3.42796 17.1167 2.9033 15.9C2.37796 14.6833 2.1153 13.3833 2.1153 12C2.1153 10.6167 2.37796 9.31667 2.9033 8.1C3.42796 6.88333 4.1403 5.825 5.0403 4.925C5.9403 4.025 6.99863 3.31233 8.2153 2.787C9.43196 2.26233 10.732 2 12.1153 2C13.4986 2 14.7986 2.26233 16.0153 2.787C17.232 3.31233 18.2903 4.025 19.1903 4.925C20.0903 5.825 20.8026 6.88333 21.3273 8.1C21.8526 9.31667 22.1153 10.6167 22.1153 12C22.1153 13.3833 21.8526 14.6833 21.3273 15.9C20.8026 17.1167 20.0903 18.175 19.1903 19.075C18.2903 19.975 17.232 20.6873 16.0153 21.212C14.7986 21.7373 13.4986 22 12.1153 22ZM12.1153 20C14.3486 20 16.2403 19.225 17.7903 17.675C19.3403 16.125 20.1153 14.2333 20.1153 12C20.1153 9.76667 19.3403 7.875 17.7903 6.325C16.2403 4.775 14.3486 4 12.1153 4C9.88196 4 7.9903 4.775 6.4403 6.325C4.8903 7.875 4.1153 9.76667 4.1153 12C4.1153 14.2333 4.8903 16.125 6.4403 17.675C7.9903 19.225 9.88196 20 12.1153 20Z" fill="white"/>
</svg>
